<svg version="1" xmlns="http://www.w3.org/2000/svg" width="933.333" height="933.333" viewBox="0 0 700.000000 700.000000"><path d="M386 2.3c-8.5 2.9-14.6 6.5-20.3 12.2-13.5 13.3-15.8 28.7-8.2 56 4.4 15.7 5.3 22.3 4.3 29.5-.9 6.2-6.6 18.5-8.6 18.5-.6 0-4.8-5.4-9.3-12-4.4-6.6-7.9-11.5-7.7-10.9.1.6 2.9 7.9 6.1 16.1l5.9 15.1-4.6 9.3c-13.6 27.6-7.2 64 12.9 73.5 8.5 4 15.1 2.6 17.1-3.6.7-1.9 1-3.8.8-4.2-.2-.3-2.3 0-4.6.7-8.3 2.4-15.2-.7-19-8.5-2.8-5.8-3.3-21.8-.7-26.3l1.6-2.9-.2 5.4c-.2 9.1 4.2 18 10.5 21.3 1.6.8 3.1 1.5 3.3 1.5.2 0-1-2.8-2.7-6.2-2.8-5.6-3.1-7.1-3.1-15.8 0-12.1 1.5-15.6 14.1-32.7 5.1-7 11-16 12.9-20 6.8-13.6 5.7-26.1-3.9-47.7-7-15.4-8.5-21.1-8.2-30.6.4-15.8 9.7-26.2 28-31.5 9.2-2.7 18.6-.6 18.6 4.1 0 1.7-4.9 5.3-12.5 9.3-8.8 4.6-14.6 10-18 16.7-2.7 5.3-3 6.9-3 15.5 0 8.8.2 10 3.3 16 1.8 3.5 7.6 11.3 12.8 17.4 11.4 13.3 14.7 19.4 15.2 28.6.5 7.8-.9 11.6-9.3 24.8-12.2 19.2-13.6 30.5-5.9 47 .9 1.8 1.9 2.9 2.3 2.5 1-1.1 48.2-132.6 47.8-133-.2-.2-5.2 5.1-11.3 11.8-6 6.7-13 14.5-15.6 17.3-2.5 2.7-5.6 6.3-6.8 7.8l-2.3 2.9-4.9-4.9c-12-11.8-15.6-18.7-16.5-31.9-1.1-15.4 2.8-23.2 17.2-34.5 9.9-7.8 10.3-8.2 11.5-11.4 1.4-3.6.3-7.2-2.9-9.4C415 0 396.8-1.3 386 2.3zm-4.7 101.4c-.3 7-3 14.5-7.5 21.1-2.5 3.6-17.2 20.8-19.8 23.2-1.8 1.6-5.5 7.8-7.1 11.8-1.7 4.4-1.8 4.5-1.9 1.6-.1-8.5 5.2-18.8 18.7-36.5 10.2-13.4 12.8-17.9 14.7-25.2.9-3.3 1.5-6.2 1.5-6.5-.1-.4 0-1.2.1-1.7.6-2.4 1.6 6.5 1.3 12.2zM207.6 19.1c-18.3 4.4-30.2 15.4-28.2 26.1 1.1 6.5 4.3 8.6 11.4 7.5 3.5-.6 4.8-.8 11.7-2.3 14.8-3.3 20.7 1.2 20.6 15.7 0 8.1-1.5 14.2-8.6 35.4-4.5 13.5-6.2 20.2-6.5 24.8 0 .5-.4.6-.9.3s-2.6-.8-4.7-1.2c-2.2-.3-7.9-1.4-12.8-2.5-4.9-1-9.4-1.9-10-1.9-.6 0 3 1.9 7.9 4.2 20.4 9.6 20.9 10 21.3 13.8.9 8.6 10.6 25.8 18.6 32.7 1.9 1.7 8.2 6 14.1 9.4 18.3 10.9 25.2 18.8 27.9 32.2l1.3 6.2 1.6-3.1c2.2-4.3 2.6-8.1 1.2-13.9-2.6-11.2-9.6-19.8-23.6-29-12.8-8.4-19.3-14.9-23.3-23.4-2.9-6.1-3.1-7.3-3-17.1.1-12.6 1.6-17.6 12.6-42 4.2-9.1 8.5-19.4 9.7-22.9 6.7-19.7.1-33.5-20-41.3-3.3-1.3-5.9-2.6-5.9-2.9 0-1 16-.1 21.5 1.2 10.5 2.5 19.4 8.8 23.4 16.7 1.7 3.4 2.3 5.5 3.9 12.2.7 3.2.5 26.5-.2 30.5-.3 1.6-.9 8.4-1.2 15-.5 9.9-.3 13.2 1.1 18 4.7 16.4 11.2 22.6 33.8 32.3 14 6 19.5 9.1 25 14.1 3.1 2.8 3.9 3.1 3.4 1.6-.3-1.1-.8-3.6-1.1-5.5-.3-1.9-.8-4.5-1-5.6-.2-1.2-.7-3.9-1-6-.4-2.2-1.4-7.7-2.2-12.4-.9-4.7-1.7-9.2-1.9-10-.1-.8-1.2-6.9-2.4-13.5-1.3-6.6-4.2-22.6-6.6-35.5-2.3-12.9-4.5-22.8-4.9-22-.5 1.3-10.6 41.7-16.7 67-1.2 5.2-2.6 9.9-3 10.3-1.2 1.5-9.5-2.9-12.2-6.4-2.4-3.3-5.5-12.2-5.6-16.4-.1-9.4.1-22.9.4-27 2-24 1.4-34.5-2.5-42.9-4.7-9.9-16.8-18.3-30.3-21.2-8.8-1.8-22.9-1.5-32.1.7zm4.5 16.4c2.4.9 5.4 2.4 6.5 3.4 2 1.6 6 8.1 5.1 8.1-.3 0-2.5-.9-5-2-5.6-2.5-13-2.9-21.9-1.1-7.5 1.5-9.8 1.1-9.8-1.7 0-6.2 15-10.1 25.1-6.7z"/><path d="M252.4 37.5c4.2 11.6 4.9 23.8 2.2 34.5-.9 3.6-6.1 15.5-11.6 26.5-10.6 21.4-13.3 29.2-12.5 36.9 1.1 10.9 9.3 22 20.8 27.7 6.8 3.5 9.6 4.4 28.7 9.2 15.6 4 22 6.7 25.5 10.9 4.6 5.4 2.5 12.8-4.2 14.7-4.7 1.4-9.8-1.7-16.3-9.8-6.8-8.7-13.1-12.9-11.6-7.9.4 1.3 1.6 5.8 2.7 10.2 2.4 9.6 4.2 12.9 9.2 16.3 10.1 7 24.6 2 28.1-9.8 3.8-12.6-4.5-22.1-25.4-29.2-14.8-5.1-30.1-10.7-32.8-12.1-9.3-4.8-14.4-12.5-14.3-21.8 0-7.9 1.8-13.7 10.8-34.7 9.3-21.8 11.4-28.6 11.5-38.1.2-6.1-.3-8.5-2.3-13-2.5-5.4-9.9-14.7-8.5-10.5zM494.3 41c-2.8 1.1-4.6 4.6-3.9 7.5.5 2 7.3 11.2 11.5 15.5 2.6 2.7 5.3 10.1 5.3 14.6 0 10.5-9.5 18.9-29.2 26-8.8 3.2-9.3 3.1-10.8-1.9-.7-2.3-2.3-7.6-3.7-11.7l-2.3-7.5-.1 13.7-.1 13.7-2.7 1.5c-1.6.8-4.4 3-6.4 4.8-8.6 7.8-11.5 15.5-13.4 35.3-2.2 22.1-5 27-25.7 44.5-3.6 3-7.8 7.3-9.3 9.4l-2.8 3.9 3.9-.7c10.8-1.9 24.3-8.1 31.6-14.5 6.9-6.1 9.8-12.9 11.4-27.1.7-6.2 3-21.1 3.9-25.3 1.1-5.2 4.5-13.4 7.6-18.1 4-6 9-9.3 22.1-14.5 5.8-2.3 14.2-6.5 18.6-9.2 18.1-11.1 22.6-22.7 14.8-38.3-1.9-3.9-4.7-8.5-6.2-10.1-7.3-8-6.9-7.4-4.3-6.8 4 .9 16.2 7.1 19 9.6 4.3 3.8 8.7 10.5 10.4 15.6 5.9 17.8-2.8 48.1-18.6 65.1-13.8 14.9-20.4 26.9-22 40.3-1.7 14.3-2.8 18.9-5.8 25.4-5.1 10.8-13.8 20.4-22.1 24.5-5.2 2.5-3.3 3.7 2.8 1.7 7.8-2.5 16.7-10.6 27.9-25.5 3.7-5 14.7-19.2 24.3-31.4 37.8-48.2 48.8-62.5 48.5-62.8-.1-.2-9.1 4.2-19.8 9.8l-19.6 10.1 2.4-4.4c5.5-9.8 8.4-24.2 7.9-39.4-.8-23.5-17.4-42.6-37.9-43.8-2.7-.2-6 .1-7.2.5z"/><path d="M524.5 90.9c-.9 2.9-9 10.8-14.9 14.6-2.8 1.7-11.6 6.4-19.6 10.2-16.4 8-21.6 12.3-26.7 21.9-5.1 9.6-6.8 17.4-7.8 36.4-.6 12.6-1.3 15.9-4.3 22-3.3 6.6-9.9 11.9-18.6 15l-6.1 2.1 7.6-.5c9.9-.6 16.8-3.5 22-9.4 5.3-6.1 7-12.2 8.3-29.2 2-25.5 5-33.4 16.8-44.6 5.4-5.1 11.7-9.2 24.3-15.8 7.5-3.9 11.8-7.4 15.1-12.1 2.4-3.4 5.7-11.5 5-12.2-.2-.2-.7.5-1.1 1.6zM402.9 103.2c-.4 6.6-4.8 15.9-12.8 26.8-16.7 22.8-21.4 32-21.3 41.7.1 8.1 4.8 17.1 11.9 22.7l2.6 2-1.6-2.5c-2.5-3.8-5.3-12.9-5.6-18.2-.5-9.3 3.7-17.7 16.8-34.2 12.3-15.5 15.2-23.9 12.1-35.4-1.1-4.1-1.9-5.2-2.1-2.9z"/><path d="M102 108.6c-11.1 3.9-19.9 14-23.6 26.9-3.7 12.9.9 29.2 11.3 40.1 5.6 5.8 9.3 7.7 26.7 13.9 15.6 5.5 21.2 8.4 27.2 14.3 4.2 4.2 9.4 12.6 9.4 15.2 0 1.1-.8 1.1-22.5-.6-7.3-.6-9.9.1-4.6 1.1 1.3.2 3.1.7 4.1 1 1 .3 2.7.8 3.7 1 5.4 1.2 20.4 5.2 20.7 5.6.8 1 10.5 30.3 10.1 30.7-.5.5-.1.7-33.4-15.5C99.2 226.7 81 218 80.2 218c-.3 0 .1.6.9 1.2.9.7 5.8 6.2 11 12.3 5.2 6 9.6 11.2 9.9 11.5.7.7 7.6 8.6 14.1 16 3.1 3.6 7.9 9.2 10.8 12.4 2.8 3.3 5.1 6.2 5.1 6.6 0 1.3-7.6 3.3-12.2 3.3-6-.1-12.4-3.2-20.1-9.7-22.7-19.3-30-22.8-46.2-22.2-27.3 1-50.1 24.1-48.2 49 .5 7.3 2.1 13 3.5 12.4.4-.2 3.5-1.8 6.9-3.6 11.8-6.1 17-7.6 26.8-7.7 8.2 0 9.6.3 15.5 3.2 4 2 9.8 6.2 14.9 11l8.3 7.8-11.5 6c-6.4 3.3-11.5 6.1-11.3 6.2.1.2 6.2-1.5 13.5-3.6l13.3-4 6.1 4.6c12.2 9.1 23.3 12.4 38.6 11.8 7.9-.3 35.1-3.9 45.1-6 10.5-2.2 25.4-2.4 29.5-.4 3.9 1.9 6.4 6.3 4.9 8.6-1.4 2.3-5.2 4.2-9.5 4.7-1.9.3-42.8.5-90.9.5l-87.5.1 15.5 8.3c15.7 8.4 35.1 18.7 46.9 24.8l6.4 3.3-10.1 9.7C69 406.8 59.4 413.7 54 414.7c-2.4.4-7.1-.3-14.5-2.1-13.3-3.3-18.8-3.9-23.8-2.5-6.6 1.7-12.5 8.6-15.1 17.5-.6 1.9-.2 2.2 4.8 2.7 6.6.7 10.8 2.8 21.7 10.8 13.6 10.2 19.9 13.8 27.2 16.1 8.4 2.5 18.2 2.1 27.1-1.1 7.3-2.6 19.5-9.4 24.7-13.9 2.1-1.8 3.9-3.1 3.9-2.8 0 .4-6.8 11.8-15.2 25.4-8.3 13.6-16 26.2-17.1 28.1l-2.1 3.4 4.5-2.5c4.1-2.4 16.2-9 30.9-17 6.2-3.4 43-23.5 55.5-30.4 3.3-1.8 10.1-5.5 15-8.2 9.3-5.2 10.6-5.2 9.9-.3-.1 1.4-.5 5.8-.8 9.6-.5 7.7-1.9 14.3-4.3 21.7-1.8 5.5 1 4.4-35.8 14.4-11.5 3.1-21.4 6.1-22 6.7-.7.7-.7.8 0 .5.9-.5 9.3-1.5 20-2.3 1.7-.1 5.3-.5 8-.9 2.8-.3 7.7-.9 11-1.2 3.3-.3 6.8-.8 7.8-1 2.4-.4 2.1.9-1 4.1-7.3 7.2-16.8 11.7-35.3 16.6-24.9 6.6-32.3 11.3-41.2 25.9-5.1 8.3-4.1 19.1 2.7 30.2 4.2 6.7 5.6 10.9 4.5 12.8-.5.8-2.7 1.5-5 1.7-4.6.4-9.3 2.4-12.8 5.7-6 5.4-7 13.4-2.7 22.2 7.1 14.5 26 18.4 38.4 7.8 7.5-6.4 12.6-17 17.1-35.5 3.7-15.3 6.3-18.9 18-25.3 6.2-3.3 24.1-10.6 26.2-10.6.5 0 .7.8.4 1.7-.2 1-.8 5.4-1.1 9.7-.4 4.3-.8 8.6-1 9.5-.3 1.7-1.1 8.5-2 18.1-.3 3-.8 7.1-1 9-.3 1.9-.7 6.2-1 9.5-.4 3.3-1 9.1-1.5 13-.5 3.8-.7 7.1-.6 7.3.4.3-1.9 4 36.6-57.3 18.4-29.2 37.6-59.8 42.8-68 5.2-8.3 10.2-16.2 11.1-17.7.9-1.6 1.9-2.8 2.4-2.8 1.2 0 7.4 10.3 8.4 14 2.3 8.3-1 14.5-12.9 24.1-12.9 10.5-17.7 15.6-21.2 22.9-2.8 5.8-3.1 7.6-3.3 16.6-.1 5.6.2 11.5.6 13.2.7 2.3.5 3.5-.7 4.9-1 1-5.1 5.6-9.2 10.3-4.1 4.7-7.7 8.7-8 9-1.8 1.8-4.3 5.2-3.5 4.8.6-.3 6.3-3.8 12.8-7.7 6.5-3.9 12.1-7.1 12.5-7 .9 0 13.7 26.8 15.7 32.8 3.5 10.1 2.1 19.4-4.2 29-4 6.1-12.5 14.9-19.5 20.1-2.6 1.9-4.8 3.8-4.8 4.2 0 1.6 6 2.3 18.5 2.2 9.9-.1 14.9-.7 21-2.3 8.6-2.3 18.8-6.7 22.5-9.7 10-8.1 14.9-15 17.1-23.9.7-2.8 1.6-5.4 1.9-5.8.4-.4 4.5 3.9 9.1 9.5 4.7 5.7 12.9 15.6 18.2 22.1l9.7 11.8V543.5l2.4 5c2.9 6.3 9.5 14.9 18.5 24.4 11.9 12.6 13.5 15.6 11.7 23.1-.8 3.4-11.7 34.1-15.7 44.1-1 2.7-1.5 4.9-1.1 4.8.4 0 3.1-3.4 6.1-7.4 3-4.1 5.7-7.2 6-6.9.3.2.6 1.7.8 3.2.2 1.5.5 4.5.8 6.7.3 2.2.5 4.3.5 4.7 0 2.1 4.6 12.8 7.1 16.5 4.2 6 9.5 10.2 19.5 15.3 12 6 15.4 8.6 15.4 11.5 0 3-.7 3.4-7.6 4.5-6.5 1.1-6.7 1.2-5.8 3.3 1.6 4.2 14.8 4.6 23 .7 9.5-4.6 14.6-13 15-24.5.3-6-.1-7.8-2.4-12.3-1.5-2.8-5.2-7.9-8.2-11.3-7.8-8.8-10.7-13.3-11.9-18.8-1-4.6-.5-11.8.8-12.5.3-.2 10.3 5.8 22.1 13.4 11.8 7.5 21.7 13.3 21.9 12.8.1-.5-.2-2.1-.8-3.6-.9-2.3-18.7-53.2-31.3-89.2-2.2-6.3-6.2-17.8-9-25.5-2.7-7.7-5.9-16.7-7-20-1-3.3-2.3-6.9-2.8-8-3.1-7.5-11-31.8-10.5-32.3 1.1-1.1 7 6.4 10.3 13.1 3.5 7.2 6 14.5 13.5 39.7 8.6 28.7 13.6 41.2 21 52 4.5 6.6 11.6 12.8 16.7 14.7 2.5.9 4.9 2 5.4 2.4.8.7 1.3 7.6 1.5 21.6.1 3.5.5 6.3.9 6.3.5 0 .9-.6.9-1.3 0-3.5 2.7-22.5 3.4-24.5.7-1.7 1.6-2.2 4.2-2.2 5.1 0 5.1-1-.1-3.7-15.2-7.9-31.5-37.2-38.2-68.3-3.6-17.1-4.9-20.8-11.5-35-9-19.2-10-22.7-10-34.5 0-11.7 1.4-20.5 4.3-27.5.9-2.1 1.1-1.2 1.2 5 .3 16 3.3 26.3 11.2 37.8 4 5.8 8.2 9.9 18.6 18.1 9.1 7.2 11.3 10.3 22.2 30.6 8.9 16.6 16.4 26.2 25.4 32.4 2.3 1.6 10.1 5.9 17.3 9.5 25.5 12.9 32.7 20.9 33.7 37.7.9 16.1-9.8 41.7-19.7 47-1.2.7-.9-.2 1.2-3.1 4.6-6.4 6.5-13.2 6.5-24 .1-8.4-.2-10.1-2.6-15.1-3.2-6.5-11.9-15.5-23.8-24.7-21.8-16.9-22.9-18.2-37.6-47.2-9.8-19.2-16.4-30-20.1-33.1-3.8-3.1-4.2-3-2.6.8.8 2.1 4.4 11.9 7.8 21.8 10.1 29.1 14.1 37.7 21.9 48.1 5.2 7 7.7 9 20.1 16.4 20.6 12.2 27.6 20.9 27.7 34.3.1 10.7-3.3 19.8-12.3 33.6-2.7 4-4.6 7.7-4.4 8.2.8 1.2 9.1-1.6 13.6-4.6 6.5-4.2 11.6-9.3 17.9-17.6 10.8-14.4 17.5-32 16.5-43.5-.4-4.9-.3-5.5 1.3-5 .9.3 3.5.8 5.8 1.1 2.2.3 5.6 1 7.5 1.5 1.9.6 4 1 4.7 1 .7 0-17.7-19.1-41-42.4-23.3-23.3-43.3-43.5-44.6-44.9l-2.3-2.4 7.3.2c36.6 1.4 50.3 11.5 69.8 51.8l6.9 14.2-.3-6.3c-.1-3.4-.1-6.2.2-6.2.3 0 1.9.9 3.6 1.9 4.1 2.6 13.9 5.7 20.6 6.6 24.5 3.4 41.8-2.2 51.7-16.6 3.1-4.5 5.5-11.7 3.5-10.5-1.3.8-17.2.8-22.5.1-9.7-1.4-25.8-9-27.3-13-.4-1-1.5-1.2-3.4-.8-2.8.5-2.9.3-4.9-6.2-2.1-6.6-3.2-18.8-1.8-20.1.3-.4 10.3-.7 22.2-.7 11.8 0 21.5-.1 21.5-.3 0-.2-8.1-5-13.5-7.9-2.2-1.3-20.9-12.2-38.7-22.7-6.5-3.8-11.8-7-11.8-7.2 0-.1 1.5-.2 3.3-.1 5.1.3 15.1-2.9 22.5-7.2l6.9-3.9 7.8 9.3c4.3 5.2 8.5 10.2 9.2 11.1 1.4 1.8-1.3-5.9-6.5-18.8l-3.1-7.5 3.1-2.5c19-15.3 25.4-18.5 35.9-17.7 7.9.5 12.4 2.8 14.9 7.8 1.6 3 1.9 5.8 1.8 16.5-.1 7.1.2 13.7.7 14.6.4 1.1 1.8 1.8 3.3 1.8 8.8 0 17.1-17.7 15.9-33.9-1.7-23.4-21.5-40.4-47.2-40.5-12.4-.1-11.9-.2-40.5 8.2-16 4.8-30.8 5.2-19.9.7 3-1.3 24.3-10.6 47.4-20.9l42-18.6H542.4l-2.2-4.6c-2.1-4.2-2.1-4.6-.5-3.9 8.1 3.4 20 4.8 27.4 3.2 5.5-1.1 13.6-5.2 19.7-9.9l6.3-4.9 11.2 1.7c12.9 1.9 14.4 2.1 21.2 2.9 5.1.5 5.7.8-23.4-10.6l-2.4-1 3.9-4c4.8-5 10.2-7.9 14.6-7.9 2.2 0 6.7 1.9 13.2 5.6 15.3 8.8 24.6 11.2 35.3 9.2 19.7-3.6 35.3-27.4 32.9-50.1-1.3-11.3-8.2-23.7-17-30.4-7.1-5.5-7.5-5.4-7.2 1.8.6 16.9-4.5 27.7-14.1 29.5-6.8 1.3-21.4-3.6-33.5-11.2l-4.6-2.9 5.4-8.8c3-4.8 5.1-8.7 4.8-8.7-.5 0-10.7 8.5-15.1 12.6-.9.8-2.7.6-7-.8-11.2-3.9-23.4-2.1-33.9 4.9-2.3 1.6-8.1 6.4-12.9 10.8-4.8 4.4-10.8 9.3-13.3 10.8-4.4 2.6-5.1 2.7-12.2 2.1-16-1.5-21-.3-27.9 6.9l-3.4 3.6 3.2-.5c1.7-.2 4.4-.6 6.1-.8 3.7-.5 14.2 1.6 22.3 4.5 8.3 3 16.4 3 20.6-.1 1.8-1.2 3.4-2.1 3.5-1.9.9 1.1-3 11.2-5.1 13.5-2.1 2.2-3 2.5-6.1 2-2-.3-6.2-1.9-9.2-3.6-18.3-10.1-25.3-11.6-33-6.8l-3.5 2.1 5 1.2c6.9 1.6 12.9 4.4 22.2 10.4 11 7 16.7 9.3 22.9 9.4 11.2 0 15.8-6.3 18.9-25.8.4-2.2.9-5.4 1.1-7 1.1-6.5 4.8-15.9 7.7-19.2 4.6-5.2 10.7-8 18.2-8.3l3-.1-4-2.4-4-2.5h3.6c6.2 0 13.3 2.8 21 8.3 15.4 11 23.9 14.4 36.7 14.6 3.4.1 4.2.4 4.2 2 0 1-.7 2.2-1.6 2.5-2.4.9-11.5.7-15.2-.3-5.1-1.5-4 1.1 1.8 4.3 3.4 1.9 7.1 2.9 11.8 3.3 11.5 1 19.2-3.9 22.8-14.4 1.4-3.9 1.6-17.7.5-24-.8-3.9-.7-4.1 1-2.9 10.6 7.3 12 31.6 2.9 49.5-5.4 10.8-14.1 16.6-15.6 10.5-.6-2.2.1-3.3 4.5-7.3 2.8-2.6 5.1-5.2 5.1-5.7 0-.6-2.8.3-6.1 2-5.2 2.6-7.2 3-13.5 2.9-10.4-.1-17.4-2.9-27.1-11-15.2-12.7-21.4-15.9-29-15-7.2.8-10.2 4.6-16.2 20.6-5.4 14.3-8.4 20.1-13.3 25.7-5.8 6.5-14.2 9.2-23.3 7.2-5.2-1.2-9.2-3.1-19.9-9.5-15.9-9.6-21.1-11.8-29.5-12.2-4.1-.2-6.6.4-10.9 2.5-6.2 3.1-6.3 3 3.8 5.8 7.2 2 16.4 8 24 15.6 3.4 3.4 12 14.1 19.3 23.8 15.4 20.8 25.6 31.4 34.2 35.6 5.3 2.6 7.2 3 16 3.3 12.3.3 20.1-1.3 34.9-7.1 18.4-7.2 27.2-8.1 40.9-4.4 17.6 4.8 27.6 16.9 28.3 34.2.4 9.4-1.3 17.3-5.2 23.8-1.4 2.3-2.3 3.4-2 2.3 4.9-18.4 3.1-33.6-5.1-43.1-8.1-9.3-26-14.4-37.2-10.6-8.3 2.8-11.6 5.1-37.1 26.2-15.2 12.6-27 16.8-40.1 14.4-15.9-3-30-13.7-48.4-36.9-23.2-29.3-27.6-34.6-34-40.9-8.3-8.3-16.4-13.7-24.3-16.4-6.1-2-17.8-2.8-22.6-1.4l-2.8.8 7.3 5.9c17.7 14.3 28.1 27.7 50.4 65.3 8.4 14 16.7 23.7 24.8 28.9 6.7 4.4 19.4 9.5 26.2 10.7 1.7.2 5.3.9 8 1.4 2.8.6 6.9 1.3 9.2 1.7 6.2.9 16 4.3 20.4 7.1 8.2 5.1 11.8 13 16.4 35.8 4.1 20 7.7 28.9 14 34.4 2.9 2.6 9.4 6.2 11.1 6.2.3 0-.5-1.8-1.6-3.9l-2-3.9 4.3 2.3c2.4 1.4 6.7 3 9.6 3.8 5.3 1.4 18.9 1.5 22.8.3 1.8-.6 2-.3 1.6 1.3-1.3 5.1-10.2 9-19.5 8.6-3.7-.2-4.8.1-4.8 1.3 0 3.2-16-1.7-23.3-7.2-6.3-4.8-11.4-13.6-13.3-23.1-.1-.6-.9-5.1-1.8-10.1-4.7-26.6-11.8-35.5-32.6-40.8-3.4-.9-7.6-1.8-9.3-2.1-11.3-1.9-15.9-2.9-23.4-5.1-14.5-4.2-21.8-8.8-28.6-18.2-3.6-5-6.3-9.7-17.2-30.7-18.6-35.8-31.6-51.1-47.5-56-1.9-.6-1.5.1 2 2.9 6.6 5.4 11.6 11.2 17.2 19.8 3.2 4.9 17.8 33.7 17.8 35.2 0 1.9 12.9 27.1 17.3 33.9 12 18.2 25.2 26 48.2 28.1 18.3 1.8 23.4 3.4 30.1 9.8 9.6 9 15.8 20.2 20.7 36.8 3.5 11.7 5.2 15.4 9.3 20 4.1 4.5 3.9 4.8-1.4 2.1-8.4-4.3-14.1-11.4-23.1-28.6-12.2-23.3-22.1-27.6-55.1-23.9-8.7.9-23.1 1.1-27.5.2-1.7-.3-5.4-1.6-8.3-2.8-10-4.3-21.3-19.7-23.8-32.5-.2-1.1-.6-3.1-1-4.5-.8-3.5-1.1-21.4-.4-27.5.5-4.7.6-4.4 2.3 6.5 6.1 38.3 17.9 55.6 38.6 56.7l7.6.4-5.2-2.8c-13.4-7.1-20.9-19-28.8-44.8-11.3-37.3-15.3-47.6-21.9-56.9-8.3-11.7-17.7-18.8-30.1-23-3.7-1.2-7.1-2.9-7.6-3.7-1.4-2.3-1-10.1.9-14.2.9-2 4.6-6.7 8.1-10.2l6.4-6.5h-3.9c-5.5 0-11.2-1.8-13.6-4.2-3.3-3.3-1.8-7.7 6.4-18.2l2.2-2.9-2.5 1.6c-1.3.8-6.4 2.8-11.4 4.2-18.4 5.6-18.3 5.4-10.6 23.3 6.3 14.8 11.1 28.1 11.1 31 0 3.6-7.9 21.6-14.2 32.4-3.5 6.1-4.3 6.9-8.6 8.2-5.6 1.6-18.5 1.4-20.7-.4-2.9-2.4-7.5-13.6-7.5-18.3 0-5.6 2.4-7.9 15.3-14.4 15.2-7.6 19-10.8 20.1-16.7.9-5-6.1-9.9-10.7-7.4-1.6.8-1.5 1.2 1.3 3.8 3.5 3.3 3.8 5.7 1 9.3-2.2 2.7-9.5 6.7-12.4 6.7-1.7 0-1.7-.2-.2-2.5.9-1.3 1.6-2.7 1.6-3 0-.6-11.8 8.2-13 9.6-1.4 1.6-5.2 2.9-7.6 2.5-3.8-.7-12.2-5.3-17.2-9.3-4.5-3.7-7.2-7.9-7.2-11.3 0-2.3.4-2.3 10.5-.4 4.7.9 21.3.6 25.2-.5 4.3-1.2 9.2-4.5 8.2-5.5-.3-.3-3.2-.1-6.5.5-7.5 1.4-25.9.6-30.7-1.5-4.4-1.8-4.7-3.8-1.3-8.1 2.4-3 2.5-3 12.5-3.1 5.5 0 10.4-.3 10.8-.8 1.2-1.2-1.4-2.2-6.5-2.5-2.6-.1-5.8-.9-7.1-1.8-2.3-1.5-2.3-1.8-1.7-11.2.3-5.3.9-12.1 1.2-15.2.6-5.6.6-5.6-2.6-6.7-2.3-.9-3-1.6-2.6-2.9 1-3.2 1.4-9 .8-10-1.3-1.9-5.1-3.3-9.1-3.3s-4 .1-3.5 3c1.9 9.1.3 22.3-3.5 30.6-6.4 13.7-17.9 20.5-33.2 19.6-4.1-.3-8.9-5.3-8.9-9.4 0-7.6 5.7-11.1 18.2-11.2 4.9-.1 8.8-.4 8.8-.7 0-.4-4.4-1.7-9.7-2.9-12.3-2.8-19.6-5.5-25-9.1-5-3.4-5.7-3.6-5-.8.4 1.4-.1 2.2-1.6 2.9-2.5.9-7 5.5-8.4 8.5-1.1 2.3-1.7 10.5-.8 10.5.3 0 2.2-1.6 4.2-3.5 3.4-3.3 6.9-5.2 7.9-4.2.2.2-.2 1.9-1 3.8-.7 1.9-1.2 5.3-1.1 7.7.2 4.4 4.2 14.2 5.7 14.2.4 0 .8.7.8 1.6 0 1.3-.7 1.5-3.4 1.1-7.5-1.2-14.3-6-19.2-13.5-2.6-4.2-2.8-4.2-3.9-2.2-.6 1.2-1.2 4.2-1.4 6.8-.1 2.5-.4 4.8-.6 5-.6.6-5-7-6.3-10.7-1.6-4.6-1.5-9.4.3-13.7l1.5-3.5-4.5 2.5c-2.5 1.3-4.5 2.2-4.5 2 0-1.8 2.9-5 9.7-10.3 9.7-7.7 12.5-11.6 13.1-18.5.5-6.3-1.3-10.3-6.1-14-4.3-3.3-5.7-3.3-5.7 0 0 8.4-5.8 16.7-14.8 21.1-5.7 2.8-5.8 2.8-23.2 2.6l-17.5-.2 4 2c6.5 3.4 11.2 8.6 20 21.9 7.5 11.3 12.4 17.2 18 21.5 1.8 1.4 1.5 1.4-2 0-6.9-2.7-13.6-7.9-26.1-20.2-12.9-12.6-19.9-17.3-28.9-19.1-2.7-.6-6.4-1-8.2-.8-2.8.2-3 0-2.2-1.6 1.9-3.6 10.7-9.5 16.6-11.1 3.8-1.1 11-1.8 20.3-2.1 15.8-.4 19.7-1.4 24-6.1l2.5-2.7-2.5.7c-4.1 1.3-14.6.8-20.7-1-19.7-5.7-33-23.9-37.9-51.5-3.7-21-9.3-27.4-29-33.1-13.1-3.7-14.9-4.9-16.2-9.9-1-4-1-4 1.7-3.3 5.5 1.5 13.8.8 28.1-2.6 15.6-3.6 24.3-4.2 32-2.1 6.6 1.8 13 8.7 16.5 18.1 11.7 30.8 28.7 47.5 47.4 46.4 7-.4 16.4-3.8 18.9-6.7.9-1.1-10.4-12.8-53.9-56.3-30.3-30.3-54.9-54.1-54.6-53 .3 1.1 3.3 11.2 6.7 22.4 3.9 12.8 5.8 20.7 5.2 21.3-1.3 1.3-15.7 1.1-21.7-.2-12.4-2.8-22.6-11-25.8-20.9-2-6.3-1.6-14.6 1.3-23 1.5-4.4 1.8-6.7 1.1-7.4-1.8-1.8-12.2-1.8-17.1-.1zm10.7 6.2c-5.6 17.7-3.7 29.1 6.6 39.2 4.3 4.2 16.5 11 19.8 11 3.3 0 2 2-1.3 2.2-15 .7-19.9.2-27-3.1-16.3-7.4-22.5-30-12.1-43.8 3.9-5.2 15.3-9.7 14-5.5zM64 261.8c6.4 4 8.2 4.1 7.6.6-.5-2.3-.2-2.5 1.9-2 6.1 1.5 8.8 3.5 20 15 9 9.2 13.4 12.9 17.6 14.8 7.8 3.7 16.3 5.1 26.3 4.6l8.5-.5-2 4c-4.5 8.8-12.1 12.8-24.4 13-14.8.2-30.3-7-39.3-18.4-13.6-17.3-13.5-17.2-32.2-17.5-13.1-.2-13.5-.2-15.7-2.8-3.9-4.6-.5-9.1 9.8-12.7 7.9-2.8 15.4-2.2 21.9 1.9zm-8.3 20.3c1.8.6 4.6 2.6 6.3 4.5 2.4 2.8 3 4.4 3 8.1 0 5.1.8 4.9-9.3 1.3-11.1-4-26.3-2.8-37.9 3-3.2 1.6-5.8 2.5-5.8 2.1 0-.4 1.4-2.9 3.1-5.5 4.8-7.1 14.4-13 23.4-14.3 2.2-.3 4.1-.6 4.3-.7.5-.6 9.9.6 12.9 1.5zm557.6 6.7c2.4 2.1 2.2 4-1.4 11.1-5.8 11.6-27.5 31.6-40.8 37.6-5.1 2.3-6.1 1.8-1.4-.8 9.2-4.9 15.1-12.5 25.1-32.2 6.9-13.5 8.6-16 12.2-17.3 2.6-1 3.4-.8 6.3 1.6zM155.1 315c4.7 1.3 8.7 4.4 9.1 7.3.9 5.2-6.9 10.7-17.2 12.2-2.4.4-4.8.9-5.2 1.1-1.1.7-18.5.6-23.8-.2-8.8-1.2-15-4.9-15-9 0-8.4 34.7-16.1 52.1-11.4zM323 341.5c1.5.9 1.2 2.5-.4 2.5-2.2 0-4.1 5.6-2.8 8.4 1.5 3.3 7.3 7.5 12.4 9.1 4 1.3 4.1 1.4 1.2 1.4-9.5.2-21.5-7.3-21.3-13.5.1-4.2 1.2-6.5 3.9-7.9 2.4-1.3 5-1.3 7 0zm-97.9 9.4c-5.2 9.5-38.3 20.1-51.1 16.3l-3.5-1 5-.1c10.2-.2 22.2-4.8 34.8-13.3 8.6-5.9 11.8-7 13.9-5.1 1.2 1.1 1.5 2.1.9 3.2zm-5.6 14.8c-2.6 6.2-4.3 8.1-9.8 11.3-9.6 5.5-29.5 8.1-40.4 5.3-2.9-.7-10.1-3.4-16-5.9-17.7-7.4-25.1-8.3-32.2-3.7l-3.2 2 6.6.6c7.7.7 13.9 3.3 24.8 10.5 11.4 7.4 17.6 9.5 26.2 8.9 3.9-.3 7.8-.9 8.8-1.3 3.2-1.2-3 4.4-7.1 6.5-9.1 4.6-15.9 3.2-34.5-7.1-19.1-10.6-25.5-12.3-36.2-9.8-2.2.5-4.1.7-4.3.5-1-.9 5.1-9.6 9.2-13.2 5.1-4.5 10-6.3 17.7-6.4 6.4-.1 10 .7 27.9 6.1 15.3 4.7 23.8 5.5 36.2 3.3 9-1.5 19-5.3 23.3-8.8 4.1-3.4 4.8-3.1 3 1.2zm24.7 3c-9.7 11.5-17.7 27.8-20.7 42.3-3 14.1-3.9 22.8-3.9 37.5 0 11.4 1.1 27.5 1.9 28.3 1.3 1.3 4.7-13.3 5.9-25.5 4.4-43.4 10.1-63.2 21.6-75.5l5-5.3-3.5 5.9c-4.1 7-6.3 13.5-8.4 25.1-1.4 7.9-2.1 14.3-3.6 32.5-2.4 29.8-6.6 48.3-14.6 64.2-1.6 3.2-2.9 6.1-2.9 6.5 0 .4 2.7-2.1 5.9-5.5 11.8-12.6 18.5-33 20.6-62.7.3-4.4.8-9.1 1-10.5.2-1.4.7-5.9 1-10 .4-4.1.9-8.4 1.1-9.5.2-1 .6-3.7 1-5.9.7-4.7 3.9-13.5 5.8-16.2 1.2-1.5 1.2-1.1-.1 2.6-1.6 4.7-1.8 12.9-1.3 48 .3 18.3-.2 24.6-3 36.7-5.7 24.4-21.9 43.6-49 58-9.1 4.9-22.7 9.6-30.7 10.8-1.8.3-5 .7-7 1.1-2.1.3-10.5.7-18.8 1-15.7.5-21.8 1.5-24.8 4.2-1.7 1.5-1.5 1.7 2.5 3.6 2.4 1.2 5.2 3.5 6.3 5.3 1.1 1.8 2.7 3 3.5 2.8.8-.2 2.7-.6 4.2-.9l2.7-.6-2.5 5c-1.4 2.8-2.7 5.8-2.9 6.8-1.1 5.4-7 25.4-8.7 29.3-1.1 2.7-2.9 5.1-4.4 5.7-2.9 1.4-3 1.2-.2-4.1 1.6-3.2 2.1-5.8 2.1-11.1-.1-6.4-.6-7.8-6.4-19.3-8.1-16-8.4-19.7-2.1-25.3 6-5.4 9-5.9 38.1-7.5 15-.8 23.7-3.4 32.8-9.7 8.7-6 17.8-16.9 21.6-26 3.6-8.6 3.9-12.9 3.8-51.8-.1-17.3 0-20.3 1.4-28.7 2.4-15.2 9.3-31 18.1-41.4 3.2-3.8 15.5-15.9 16.1-15.9.3 0-1.8 2.6-4.5 5.7zm73.9-2.2c3.6.8 11 3 16.5 4.9 5.4 2 10.1 3.6 10.3 3.6 1.2 0-1.1 11.8-3.2 16.4-3.7 8-8.3 9.6-18.5 6.2-4.5-1.5-11.2-6.7-11.2-8.7 0-.4 2.7-.6 5.9-.4 4 .2 6.5-.1 7.7-1 1.1-.9 1.4-1.4.7-1.5-5.6-.1-17.3-5.5-17.3-7.9 0-.4 2.4-.6 5.4-.3 2.9.2 6.1 0 7.1-.5 1.3-.8.6-1.5-4.3-3.6-7.3-3.1-14.2-7.4-14.2-8.7 0-1 4.9-.5 15.1 1.5zM207 391.6c-7.3 13.3-14.3 20.8-23.5 25.1-5.1 2.3-7.3 2.8-14.5 2.7-9.1 0-15.2-1.6-35.5-9.5-16.5-6.5-25.4-7.2-33.6-3L96 409l2-3.9c5.5-10.8 13.7-14.6 25.4-11.5 2.9.8 9.8 3.6 15.4 6.3 14.7 7.3 22.6 9.5 32 8.8 12.1-.7 25.1-7.7 35.2-18.9 1.9-2.1 3.6-3.8 3.8-3.8.2 0-1.1 2.5-2.8 5.6zm238.4 6.7c3.6 7.3 4.4 12.8 4.5 31.7.1 17.8.6 23.6 2.8 28.8 1.9 4.7.2 3.3-4.2-3.3-6.1-9.2-7.6-15.2-7.5-29 .3-23.2.2-24.3-2.5-33-.8-2.8-1.5-5.2-1.5-5.4 0-1.7 6.2 6 8.4 10.2zm221.9 1.2c4.1 1.9 12 10.2 11.1 11.6-.3.5-1.9-.2-3.6-1.6-8.2-6.9-16.9-8.4-26.7-4.5-7.6 2.9-13.5 7.3-22.3 16.4-4.3 4.3-7.8 7.4-7.8 6.7 0-3.3 6.1-13.2 11.5-18.7 11.8-11.9 25.8-15.6 37.8-9.9zm-394.8 9.6c.7 4.6 1.7 9.7 2 11.4 1.3 5.6 10.3 23 16.1 31 12.8 17.7 15.5 22.2 17.5 28.5 2.3 7.6 2 14-1.1 20-2.5 5-5 7.3-18.5 17.5-13.1 9.8-16.4 13.2-20.2 20.5-2.6 5.2-2.8 6.2-2.7 17 .1 6.3.4 12.2.6 13 .3.8.8 2.8 1.3 4.5.4 1.6 3.4 8.7 6.7 15.7 8.3 17.7 9.7 22.8 9.3 34.1-.6 17.9-7.8 29-21.8 33.3-2.1.7-3.9.8-4.3.3-.3-.5-.1-.9.4-.9s2.7-1.8 5-4c7.6-7.5 11.4-19.2 10.7-33.7-.4-8.9-2.3-15.4-9-31.3-2.9-6.9-5.7-14.1-6.3-16-5.5-17.7-2-37 8.7-47.3 2-2 8.5-6.9 14.6-10.9 12-8 16.2-12.8 16.9-19.3.9-6.9-1.3-12.4-10-25.1-16.7-24.6-19.8-35.2-18.5-63.9.3-6.2.8-5.1 2.6 5.6zm109.2-3.4c.5 1.4-2.7 2.3-17.7 4.9-12.7 2.1-43-1.4-43-5 0-1.8 60.1-1.8 60.7.1zM117 413.2l5.4 1-2.8 2c-1.5 1.1-6 6.4-10 11.7-11 14.5-17.2 19.3-31.2 24.1-15.4 5.3-28.4 2.2-28.4-6.9 0-2.5.2-2.6 5.3-2.4 6.3.1 14-2.3 19.4-6 2.1-1.5 7.6-6.1 12.3-10.3 9.2-8.3 13.8-11.5 18.5-13.1 4-1.3 5.1-1.3 11.5-.1zm-80.5 5.2c13.2 4.1 19.5 4.1 28.8-.4 5.2-2.5 5.3-2.5 6.5.7 2.8 8.3-5.2 15.5-17.3 15.6-5.1.1-7.3-.5-14.5-4-10.6-5.2-16.3-6.7-24-6.1-3.3.2-6 .3-6 .1 0-1.1 6.7-6.7 9.3-7.8 3.9-1.6 7.3-1.2 17.2 1.9zm265.9 14.5c3.9 4.5 18.1 27 20.8 32.8 3.6 8.1 5.6 18.3 4.7 24.3-1.3 8.8-4.7 13.8-19.6 29-21.9 22.3-24.5 26.8-23.9 41.5.5 10.8 1.4 14.6 7.8 30.5 1.7 4.1 3.7 9.5 4.4 12 1.3 4.3 1.4 3.9.9-7-.2-6.3-.7-12.6-1-14-.3-1.4-.8-7.3-1.2-13.1-1-18.9 2.7-27.9 20.4-49.9 15.6-19.4 19.1-27.4 18.7-42.5-.3-11.1-5.6-24.4-17.7-44.5l-2.1-3.5 2.9 2.2c8.2 5.8 18.1 17.8 22 26.8 4.1 9.3 5.5 16.2 5.1 26.5-.5 13.5-4 20.8-17.1 35.5-12.8 14.4-16.9 21.3-20.1 33.5-1.9 7.3-2.3 24.6-1 40 2.2 27-.7 38.6-12.8 50.5-4.5 4.4-15.6 12.2-15.6 10.9 0-.2 1-2.1 2.3-4.2 3.4-5.5 7.6-16 8.6-21.7 1.9-10.3.5-19.1-6.1-39.5-6.6-20.2-7.7-25.8-7.4-36.1.3-12.3 3-16.7 21-34.4 16.7-16.3 19.6-21 19.8-31.6.1-11.2-2.8-19.7-12.7-37.4-7.3-13-10.3-20.5-11-27.7l-.7-6.3 4.6 7.9c2.5 4.4 5.2 8.7 6 9.5zm93.4-1.4c4.8 7.6 6.1 15.2 5.6 33.5-.2 9.1-.6 17.8-.8 19.5-.2 1.6-.7 5.7-1.1 9-.3 3.3-.8 7.1-1.1 8.5-.7 4.3-.6 20.4.2 23.5 1.7 7 6.3 13.3 19.2 26.8 17.6 18.4 18.7 24 8.9 45.3-8.6 18.9-9.9 25-7.3 35.3 1.9 7.6 4.5 11.7 13.2 20.9 8.4 8.9 10.4 12.4 10.3 17.7-.1 5.4-1.6 9.5-1.7 4.4 0-7.2-4.1-10.4-20.7-15.9-12.2-4.1-18.7-8.7-22.1-15.6-3.4-7-3.3-12.2.5-25 3.7-12.3 4.9-19.6 4.5-27-.6-11-3.2-15.7-16.4-30.4-5.4-6-10-13.8-12.7-21.8-2.2-6.3-2.7-9.6-2.7-17.7-.1-12 .1-13.5 5.5-35.1 6.1-24.3 6-38.8-.4-51.9l-1.9-4 3.3 3.5c3.4 3.6 7.6 11.9 8.6 16.7 1.2 6.2.4 22.5-1.7 34.8-3.2 18.4-3.5 21.8-3.5 33 .1 8.8.4 10.7 2.8 16 2.7 5.7 6.2 10.5 7.8 10.5.4 0-.4-2.2-1.7-5-1.3-2.7-2.8-7-3.4-9.6-1.7-7.4-1.4-21.6.6-30.4.3-1.4.8-3.6 1.1-5 .2-1.4.9-4.5 1.4-7 7.1-30.9 7.3-49.9.8-62.2-1.1-2.1-1.1-2.2.6-.8 1 .8 2.9 3.3 4.3 5.5zm-50.3 2.8c4.5 4.7 8 12.8 9.4 21.4.4 2.9.7 5.3.5 5.3-.2 0-1.2-1.9-2.2-4.3-1.1-2.3-4.1-7.1-6.8-10.6-9.4-12.3-9.4-12.3-8.3-14.3 1.5-2.7 2.8-2.2 7.4 2.5zm20 12.4c1.9 3.2 4.5 8.9 5.7 12.7 2.6 8.6 2.1 19.3-1.8 34.6-6.2 25-6.3 39.4-.2 55.5l1.8 5-2-2.5c-1.1-1.4-2.9-4.3-4.1-6.5-7.8-14.6-8.4-28-2.5-52.5 5.3-21.7 5.4-34.9.2-47.2-2.9-6.9-1.9-6.5 2.9.9zm-170.7 23.8c-2.9 18.8-15.6 35.5-31.3 41.4-9.5 3.6-18.6 8.5-32.8 17.9-15.2 10-18.4 11.2-22.2 8.8-5.1-3.4-2.2-9.6 7.2-15.9 11-7.2 21-11.4 37.6-15.8 4.5-1.2 10.3-3.2 12.8-4.5 9.3-4.6 18.1-15.4 24.9-30.7 1.9-4.2 3.7-7.4 4.1-7.2.3.3.2 2.9-.3 6zm360.3 26.7c4.1 2.3 8.2 8.9 7.2 11.5-.5 1.2-1 .9-2.7-1.1-1.2-1.4-4.5-3.7-7.4-5.1-5.6-2.8-7.4-5.1-5.1-6.6 2.2-1.3 3.8-1.1 8 1.3zm-357 2.4c3.6 4.3-1.7 14.4-11.3 21.7-10.5 7.9-25.1 11.8-32.2 8.6-6.3-2.9-3.7-6.3 10.9-13.9 5.5-2.9 11.8-6.5 14-8.1 2.2-1.6 6.2-4.5 8.9-6.4 5.3-3.9 7.7-4.3 9.7-1.9zm-79 85.2c1.3 6.5.8 11.4-1.6 16.6-6.3 13.3-24.8 12.2-28.6-1.6-1.6-6.1.9-11.5 6.6-14.2 4.9-2.3 6.8-1.2 6 3.4-1.8 10.6 11.1.9 13.1-9.8.6-3.2.8-3.4 2-1.7.7 1 1.8 4.3 2.5 7.3zm286.8 76.6c1.6.9 6.8 2.5 11.7 3.7 11.7 2.9 15 4.4 17 7.4 1.5 2.4 1.5 2.9-.1 7-2.1 5.5-3.5 6.7-2.9 2.3.7-5.1-1.3-6.7-10.7-8.4-4.6-.9-9.9-2.4-11.8-3.3-4.1-1.9-8.7-7.5-9.7-11.6l-.7-3 2.2 2.2c1.2 1.3 3.4 2.9 5 3.7z"/><path d="M413 563.3c0 .3.7 2.4 1.6 4.8 1.8 4.9 2.3 17.3 1.1 23.3l-.8 3.9 3.3-2.8c10.5-8.7 10.2-19-.8-26.6-2.4-1.6-4.4-2.8-4.4-2.6zM524 107.7c0 2.3-11.1 11.8-22.9 19.7-23.3 15.5-25.7 20.2-29.6 57.4-2 19.6-7 28.4-19.6 34.5l-5.4 2.7 5-.5c6.9-.7 11.4-2.3 15.5-5.3 8.7-6.5 11.6-14.9 13.6-40.2.3-4.7 1.5-11.8 2.5-15.9 2.6-10.2 9.7-19.5 22.6-29.7 5.4-4.2 10.8-8.9 12.1-10.3 2.9-3.3 7.5-12.1 6.8-12.9-.3-.3-.6-.1-.6.5zM249.7 119.7c-3.2 9.1-3.4 15.2-.8 20.8 4.1 9.1 13.2 14.5 37.6 22.5 8.8 2.9 19.2 6.8 23.1 8.7 12.4 6 18.3 13.8 18.4 24.2 0 5.8.5 6.3 1.5 1.6 2.3-10.8 1.1-16.8-4.5-22.9-4.8-5.1-11.5-8.6-28-14.1-28.7-9.8-36.1-14.4-41.8-26.4-2.1-4.5-2.5-6.9-2.4-13.8 0-4.5-.1-8.3-.2-8.3-.2 0-1.5 3.5-2.9 7.7zM609.4 124.6c-11.2 2.3-21.4 9-30.9 20.4-2.2 2.6-3.6 3.7-3.9 2.8-.2-.7-1-3.4-1.7-6-1.5-5.5-2.3-4.7-3.3 3.2-1.1 8.2-6.1 22.5-10.2 28.6-6.4 9.6-13.3 13.9-29.2 18-24.2 6.3-28.2 9.1-40.7 28.4-6.1 9.4-10.7 14.7-15.1 17.7-3 1.9-2.4 3 2.5 3.8 6.9 1.1 12-2.2 22.1-14.7 7.1-8.7 15.6-13.8 23.2-13.8 1.5 0 7.6 1.6 13.5 3.6 12.3 4.1 17.7 4.7 24.7 2.6 13.2-3.8 18.7-12.8 22.1-35.7.3-2.3.7-5 .9-6 .2-1.1.7-4.6 1-7.8 2.1-17.6 10.9-30.5 25.2-36.9 5.8-2.5 16.2-2.8 21.4-.5 5.8 2.6 11.4 7.2 15.4 12.7 2 2.8 3.1 4.8 2.4 4.3-.7-.4-3.8-2.5-6.9-4.5-10.1-6.6-21.1-8.3-28.7-4.4-4.3 2.2-13.2 12.9-13.2 15.9 0 .2 3-1.2 6.8-3 7.6-3.7 13.4-4.8 17.4-3.2 4.6 1.9 3.9 4.1-2.2 7-12.9 6.2-17.2 15.7-18.5 40.5-1.2 24.5-7.1 36.3-23.6 47.3-6.5 4.4-13.4 7.1-32.9 13.1-7.4 2.3-15.7 5.3-18.3 6.7-6.2 3.1-13.3 9.6-15.8 14.5l-1.9 3.7 4.3-1.8c18.8-8.1 130.4-57.5 130.9-58 .4-.3-8.4-.6-19.5-.6-12.4-.1-20.1-.4-20-1 .2-1.8 1.3-15 1.9-24 .6-9.2 2.4-20 4.2-24.5 2.2-5.6 7.1-10.8 12.9-13.6 4.8-2.4 7.1-2.9 14.3-3 4.8-.1 10.5.1 12.8.6 4.7.8 5.3.1 4.6-5.1-.8-5-4.7-11.1-10.6-16.4-10.8-9.8-24.2-13.7-37.4-10.9zM573 175.5c0 5.2-4.9 15.2-10.9 22.4-3.4 4.1-3.8 5-2.6 6.2 2.8 2.9 2.2 7.4-1.1 9.6-3.9 2.5-10.4 1.9-19.8-1.8-5.7-2.4-9.7-3.3-13.8-3.4-3.3 0-5.3-.4-4.8-.9s5.1-2.3 10.2-4.1c5.1-1.7 11.1-4.1 13.4-5.3 9.7-4.9 19.5-14.1 25-23.2 1.6-2.7 3.2-4.6 3.6-4.3.5.2.8 2.4.8 4.8zM389 166.4c-1.1 1.9-2.6 5.9-3.2 8.9-1 4.7-.9 6.1.6 10.1 1 2.7 3.1 5.6 4.9 7 3.4 2.4 7.1 4.1 6.5 2.9-6-11.8-6.2-12.7-6.2-22.6 0-5.3-.1-9.7-.2-9.7s-1.2 1.5-2.4 3.4zM180.3 189.9c2.6 2.8 5.2 6.3 5.8 7.8 1.6 3.8 1.9 11.6.8 18.3-3.8 24.1-2.2 34 6.9 42.2 6 5.4 10.5 7.1 19.2 7.2 8.2.1 13.3-1.8 17.9-6.8l2.4-2.6-3.4-.1c-22-.4-29.8-9.5-32.4-37.9-1.7-18-6.8-26.6-19-31.9-2.7-1.1-2.5-.8 1.8 3.8z"/><path d="M588.2 209.5c-.3 2.7-3.9 8.5-7.1 11.4-4.6 4.1-14.1 7.7-31.6 12.1-23.9 5.9-32.7 10.3-38 19.4-2.5 4.4-5.6 16-4.8 18.2.2.7 2.6-.9 5.2-3.5 5.2-5.1 14.6-10.1 32.1-17.1 19.8-7.9 25.2-10.3 30.8-14.3 10.2-7.1 14.6-14.3 13.9-23-.2-2.9-.4-4.3-.5-3.2zM204.7 218.3c-1 2.7.2 11.6 2.2 16.3 7.2 16.2 20.4 19.1 32 7 3.8-3.9 4-3.7-5.2-5.4-11.1-2.1-21.6-8.8-26.8-17.1-1.3-2.1-1.6-2.2-2.2-.8z"/><path d="M522.5 224.1c-11.9 2.2-23.2 10.4-31 22.4-3.2 5-6.1 12.2-5.2 13.1.7.7 11.4-7.6 20.6-16 13.2-12.1 16-13.3 32.9-14.2 4.8-.3 9.1-.9 9.6-1.4 1.3-1.3-9.9-4.3-16.9-4.5-3.3-.1-7.8.2-10 .6zM370.3 235.1c-9.5 4.7-11.7 18-4.2 25.8 5.1 5.3 13.9 5.3 26.4-.1 10.4-4.5 17.5-4.4 28.1.5 9 4.1 15.4 4.8 20.4 2.2 3.4-1.8 5-4.3 5-7.9 0-2.9-2.1-3.4-4.1-1-1.7 2.1-6.3 1.2-14.2-2.8-10.2-5.2-16.7-4.5-31.6 3.3-9.8 5.1-16.2 5.8-19.2 2.1-1-1.3-1.6-2.9-1.3-3.6.3-.8-.5-1.6-2-2-3-.7-4.8-3.7-4.3-6.8.3-2.3 2.4-6.8 3.6-7.8 1.6-1.3 3.2-4 2.5-4-.5 0-2.8.9-5.1 2.1zM290.4 237c-11.1 3.1-20.7 9.8-25.6 17.9-1.2 2-2.6 3.9-3.2 4.3-.5.3-3.1-.4-5.8-1.8-2.6-1.3-4.9-2.4-5.2-2.4-.6 0 1.7 7.1 3.2 9.8 1.7 3 6.7 5.1 10.8 4.6 3.6-.4 15.9-4.8 18.9-6.8 1.1-.8 4.6-2.2 7.6-3.1l5.6-1.8 13.8 4.8c11 3.8 14.7 4.6 18.3 4.2 5.5-.6 8.8-3.7 10-9.5 1.1-4.8.8-5.1-2.6-2-3.3 3.2-9.9 2.9-17.7-.7-8.7-4.1-16.5-4-26.5.3-4.1 1.7-8.9 3.4-10.6 3.8-2.8.5-3.2.3-4.2-2.4-2.3-6.6 7-15.2 20-18.6 4.9-1.2 5-1.3 2.1-1.8-1.7-.2-5.7.3-8.9 1.2zM456.4 262.4c-3.3 1.5-6.7 5.4-5.8 6.8 1.1 1.7 3.5.7 8.4-3.7 4.3-3.8 4.7-4.5 2.8-4.5-1.3.1-3.7.7-5.4 1.4z"/><path d="M293.5 266.5c-2.3.6-8.9 3.7-14.8 6.9-11.9 6.4-12.1 6.8-5.3 12 5.2 3.9 12 7.1 21.6 10.1 4.7 1.4 11.2 3.5 14.4 4.5 3.3 1.1 6.2 1.8 6.4 1.5 1.3-1.2 2.9-11.8 2.5-16.5-.4-5.6-3.2-12.4-6.1-14.8-5.1-4-12.6-5.6-18.7-3.7zm.9 11.3c-1.9 4.2-3.4 8.7-3.4 9.9 0 1.2-.4 2.4-.8 2.7-1.2.7-5.2-3.1-5.3-5.2-.4-4.3.3-8.9 1.7-11 1.8-2.7 6.9-5.1 9.4-4.5 1.5.4 1.4 1.3-1.6 8.1zm16.6 5.4c0 3.2-.7 4.7-3.4 7.4-2.1 2.1-4.4 3.4-6 3.4-3.1 0-3.2-.3-.7-4.4 1.1-1.7 2.9-5.8 4.2-9l2.2-6 1.8 2.3c1.2 1.4 1.9 3.9 1.9 6.3zM399.4 266c-9.3 2-14.7 9.2-14.9 19.9-.2 7.8 1.6 15.7 3.6 15.4 3.7-.4 28.6-8.6 33.1-10.9 2.7-1.4 7-4.4 9.4-6.6l4.5-4.1-4.3-2.4c-19.3-11-24.4-12.8-31.4-11.3zm13.7 5.5c5 3.3 6.6 12.1 2.8 16.9-1.1 1.4-2.5 2.6-3.1 2.6-.6 0-.9-.3-.6-.6.6-.6-3.1-11.3-5.6-16.3-.9-1.7-1.4-3.5-1.2-4 .6-1 5.3-.1 7.7 1.4zm-11.3 18.2l2.2 4.3h-2.1c-8 0-13.5-11.4-8.2-17.2 1.7-1.9 1.8-1.8 3.8 3.4 1.1 2.9 3.1 7.2 4.3 9.5zM459.8 279.6c-3.6 1.5-5.3 3.7-4.2 5.5.8 1.4 3 1.1 12-1.7 6.4-2 9.8-2.5 14.2-2.2l5.7.5-3.5-1.5c-5.3-2.2-19.7-2.6-24.2-.6zM451.1 297.2c-5.2.9-8.6 3-9.3 5.6-1.3 4.6 1.6 5.3 11.1 2.8 7.2-1.9 13.3-2.3 20.3-1.2 2.6.4 5.1.8 5.5.8.5.1 2.4.8 4.3 1.6 3.2 1.3 3.3 1.3 2-.3-5.5-6.7-22.5-11.3-33.9-9.3zM461 327.4l-4.5 1.3 4.5.7c13.8 2.2 27.3 9.3 37.7 19.5 7.6 7.6 12 13.2 23.8 30.6 11.8 17.4 13.7 19.9 21.5 27.7 10.2 10.1 20.8 14.8 33.8 15 11.6.2 21.1-4.2 37-16.9 5.9-4.7 11.4-9.2 12.2-10 2.2-2.2-8.8 2.9-17.2 7.9-12.6 7.4-19.2 9.7-28.6 9.9-5.6.1-7.7-.3-12.1-2.6-7-3.5-15.5-12.3-26.6-27.5-18-24.7-21.1-28.6-28.4-36.2-13.3-14.1-24.8-19.9-39.6-20.3-4.9-.2-11 .3-13.5.9zM377.4 369.7c-8.4 4.1-11.4 6.7-11.4 10.2 0 1.7 7.4-.8 12.4-4.3 4.4-3 9.5-9.1 8.4-10-.1-.2-4.4 1.6-9.4 4.1zM385 378.5c-6.8 3-14 8.6-14 10.9 0 1.6 9.3-.4 13.5-2.9 4.3-2.5 7.4-6.1 8-9.6.2-1 .3-1.9.2-1.8-.1 0-3.6 1.6-7.7 3.4zM441 474.6c4.1 8.1 12.2 32.4 14.5 43.3 1.1 5 6 20.6 8.6 27.1 7.9 19.7 16.7 29.7 32.9 37.3 5.8 2.7 13.4 6.3 17 8 3.8 1.8 8.7 5.3 11.8 8.3 5.4 5.5 6.1 5.5 3.8.1-2-5-9.2-10.6-21.2-16.7-19.8-10.1-25.3-17.4-37.8-50.5-14.8-38.9-20.3-51-26.8-58.9-5.7-6.9-6.8-6.1-2.8 2z"/></svg>