<?xml version="1.0" encoding="UTF-8"?>
<!-- Created with Inkscape (http://www.inkscape.org/) -->
<svg width="148.7mm" height="52.917mm" version="1.1" viewBox="0 0 148.7 52.917" xmlns="http://www.w3.org/2000/svg" xmlns:cc="http://creativecommons.org/ns#" xmlns:dc="http://purl.org/dc/elements/1.1/" xmlns:rdf="http://www.w3.org/1999/02/22-rdf-syntax-ns#">
 <metadata>
  <rdf:RDF>
   <cc:Work rdf:about="">
    <dc:format>image/svg+xml</dc:format>
    <dc:type rdf:resource="http://purl.org/dc/dcmitype/StillImage"/>
    <dc:title/>
   </cc:Work>
  </rdf:RDF>
 </metadata>
 <g transform="translate(-43.83 -54.914)">
  <g stroke-width=".26458" aria-label="SAMUEL">
   <path d="m58.594 85.129q0-2.4342-1.0054-4.0746-1.0054-1.6933-2.6988-2.8575-1.27-0.84667-2.1696-1.4288-0.84667-0.635-1.3758-1.1642-0.47625-0.52917-0.68792-1.0054-0.21167-0.47625-0.21167-1.1112v-11.271q0-1.6404 1.0583-1.6404t1.0583 1.6404v8.7842h6.0325v-7.8317q0-3.3338-1.7992-5.5033-1.7992-2.1696-5.1858-2.1696-3.3338 0-5.2917 2.1696-1.905 2.1167-1.905 5.5033v11.483q0 2.3283 1.1112 3.8629 1.1642 1.5346 2.8575 2.6458 1.2171 0.79375 2.0108 1.4288 0.79375 0.58208 1.27 1.1642 0.47625 0.52917 0.68792 1.2171 0.21167 0.635 0.21167 1.5346v11.113q0 1.5346-1.0583 1.5346-0.58208 0-0.84667-0.42333-0.21167-0.47625-0.21167-1.1112v-8.5196h-6.0325v7.4612q0 1.7462 0.42333 3.2279 0.47625 1.4288 1.3758 2.4871 0.89958 1.0583 2.2225 1.6933 1.3229 0.58209 3.0692 0.58209 1.6933 0 3.0162-0.58209 1.3229-0.635 2.2225-1.6933t1.3758-2.54q0.47625-1.4817 0.47625-3.175zm-4.8683-8.3608 1.5346 0.9525q0.74083 0.58208 1.3758 1.1642 0.635 0.58208 1.1112 1.3229l1.7462 1.7462q1.1112 1.0583 1.7462 2.5929 0.635 1.4817 0.635 3.4925v11.43q0 1.7992-0.52917 3.3338-0.47625 1.5346-1.4288 2.6458t-2.3283 1.7462q-1.3758 0.635-3.1221 0.635-1.6933 0-3.0162-0.52917-1.3229-0.52916-2.2225-1.4288l-1.8521-1.7992q-1.7992-1.0583-2.6988-3.0162-0.84667-1.9579-0.84667-4.4979v-8.0433h7.1967v0.37042l0.9525 0.9525v-3.3338q0-0.79375-0.26458-1.5875-0.21167-0.10583-0.37042-0.21167-0.15875-0.15875-0.26458-0.26458-1.0583-0.68792-1.9579-1.5875l-1.27-1.27q-1.7462-1.2171-2.9104-2.8046-1.1112-1.5875-1.1112-4.1275v-11.483q0-1.7992 0.52917-3.3338 0.58208-1.5346 1.5875-2.5929 1.0054-1.1112 2.4342-1.6933 1.4288-0.635 3.2279-0.635 2.2225 0 3.7571 0.84667 1.5875 0.84667 2.4871 2.3812l1.905 1.8521q1.0583 1.0583 1.5875 2.6458 0.52917 1.5346 0.52917 3.4396v8.255h-6.7733l-1.3758-1.3758v3.4396zm0.3175 24.712q-0.05292 0-0.15875-0.10583z"/>
   <path d="m75.58 62.216q0-0.68792 0.21167-1.1642t0.89958-0.47625q1.0054 0 1.0054 1.6404v22.331h-2.1167zm2.1167 42.016h5.9796v-41.063q0-3.5454-1.8521-5.6092t-5.08-2.0638q-3.175 0-5.2388 2.0638-2.0108 2.0638-2.0108 5.6092v41.063h6.0854v-14.605h2.1167zm-8.4138 0.58208h-0.37042v-41.645q0-3.81 2.1696-6.0325 2.2225-2.2225 5.6621-2.2225 2.1696 0 3.7571 0.89958 1.5875 0.84667 2.4871 2.4871l1.7462 1.6933q2.2225 2.1167 2.2225 6.0854v41.487h-6.7204l-1.3758-1.3758v1.3758h-6.8262z"/>
   <path d="m115.69 104.23v-48.419h-7.3025l-3.0162 26.353-2.8575-26.353h-7.4612v48.419h5.9796v-25.135 0.15875l2.6458 15.61h3.2279l2.8575-15.663v25.03zm-9.9483-45.932 0.84667 7.62 1.27-10.689h8.4138v0.3175l2.7517 2.7517v49.265h-6.7733l-2.6988-2.7517h-0.37042v-6.6146h-2.9633l-1.8521-1.905v11.271h-6.8263l-2.7517-2.7517h-0.3175v-49.583h8.5725v0.37042z"/>
   <path d="m141.3 55.813h-5.9796v41.804q0 0.635-0.26458 1.1112-0.21167 0.42333-0.74084 0.42333-1.1112 0-1.1112-1.5346v-41.804h-6.0325v40.746q0 1.5346 0.37042 2.9633 0.42333 1.4287 1.27 2.54t2.1696 1.7992q1.3758 0.68792 3.2808 0.68792 1.8521 0 3.175-0.68792 1.3229-0.68792 2.1696-1.7992 0.89958-1.1642 1.27-2.5929 0.42333-1.4288 0.42333-2.9104zm-11.271 48.26q-1.8521-1.1642-2.6458-3.175-0.79375-2.0108-0.79375-4.3392v-41.328h7.1967v0.3175l0.9525 0.9525v-1.27h7.1438v0.3175l2.7517 2.7517v41.169q0 1.5346-0.42333 3.0692-0.42333 1.4817-1.3758 2.6458-0.89959 1.2171-2.3283 1.905-1.3758 0.74083-3.3338 0.74083-1.7462 0-3.0692-0.52917-1.27-0.47625-2.1696-1.3758z"/>
   <path d="m165.38 104.23v-5.08h-6.6146v-17.145h4.8154v-5.1858h-4.8154v-15.981h6.6146v-5.0271h-12.647v48.419zm-3.2808-5.6621h3.8629v0.37042l2.7517 2.7517v5.8738h-13.494l-2.7517-2.7517h-0.3175v-49.583h13.811v0.3175l2.7517 2.7517v5.8738h-6.6146v12.065h2.0638v0.37042l2.7517 2.6988v5.9796h-4.8154z"/>
   <path d="m189.19 104.23v-5.08h-6.6146v-43.339h-6.0325v48.419zm-3.2808-5.6621h3.8629v0.37042l2.7517 2.7517v5.8738h-13.494l-2.7517-2.7517h-0.3175v-49.583h7.1967v0.3175l2.7517 2.7517z"/>
  </g>
  <flowRoot fill="#000000" font-family="Zacatecas" font-size="40px" letter-spacing="0px" word-spacing="0px" style="line-height:1.25" xml:space="preserve"><flowRegion font-family="Zacatecas"><rect x="235.71" y="360.38" width="39.286" height="40"/></flowRegion><flowPara/></flowRoot>
  <g fill="#fff">
   <path transform="matrix(.26458 0 0 .26458 43.83 54.914)" d="m24.336 187.15c-3.9152-0.57435-7.1573-1.803-10.206-3.8679-5.8912-3.9897-9.5749-9.932-11.196-18.061-0.36719-1.8409-0.46298-5.0717-0.56333-18.998l-0.12091-16.78h22.691v16.937c0 14.506 0.06156 17.144 0.42885 18.381 0.53594 1.8047 1.5522 2.5211 3.5762 2.5211 1.9064 0 2.978-0.70635 3.6281-2.3914 0.48829-1.2658 0.51515-2.5665 0.51515-24.952 0-25.395 0.02149-24.976-1.4447-28.123-1.4986-3.2163-5.0404-6.436-13.292-12.083-9.2559-6.3344-13.529-11.5-15.295-18.49l-0.62804-2.4859v-52.204l0.6337-2.8655c2.3706-10.719 9.146-18.043 18.994-20.532 2.12-0.53568 3.1727-0.62267 7.4412-0.61493 5.3635 0.00973 7.0822 0.28303 10.58 1.6824 2.965 1.1862 5.034 2.5435 7.2672 4.7674 4.3763 4.358 7.0073 9.9635 7.9606 16.961 0.18059 1.3255 0.29438 8.4523 0.29438 18.437v16.277h-22.347l-0.082143-17.885c-0.081055-17.648-0.090038-17.902-0.67779-19.174-0.77132-1.6688-1.7203-2.2832-3.5204-2.2792-1.7009 0.0038-2.6844 0.58332-3.387 1.9959-0.48058 0.96618-0.50717 2.3011-0.50717 25.465v24.445l0.77987 1.5882c1.5404 3.1368 4.8473 6.118 11.926 10.751 5.4546 3.57 8.1582 5.7342 10.389 8.3167 3.3545 3.8826 5.2759 7.4005 6.532 11.959l0.75503 2.7403 5.53e-4 27.069 5.52e-4 27.069-0.6467 2.9002c-2.7343 12.262-10.427 19.994-21.413 21.522-2.449 0.34063-6.7482 0.34118-9.066 1e-3zm14.276-11.303c-0.09389-0.15192-0.295-0.27621-0.44692-0.27621-0.15192 0-0.1994 0.12429-0.1055 0.27621 0.09389 0.15192 0.295 0.27621 0.44692 0.27621 0.15192 0 0.1994-0.12429 0.1055-0.27621z" stroke-width=".27621"/>
   <g stroke-width=".19531">
    <path transform="matrix(.26458 0 0 .26458 43.83 54.914)" d="m97.057 108.04c4.54e-4 -53.195 0.0664-78.892 0.20639-80.42 0.68976-7.531 3.1334-13.147 7.6907-17.676 3.6397-3.6167 7.7345-5.8356 12.819-6.9465 6.2742-1.3708 13.307-0.7013 18.469 1.7582 2.5334 1.2071 4.0548 2.2471 5.9861 4.0924 4.8264 4.6111 7.5177 10.945 8.1425 19.162 0.13234 1.7405 0.20064 29.074 0.20095 80.42l4.8e-4 77.783h-22.461v-55.078h-8.2031v55.078h-22.852l6.68e-4 -78.174zm31.054-38.88c0-30.004-0.0636-43.179-0.21228-43.984-0.28604-1.5473-0.87787-2.7449-1.6164-3.2708-0.92697-0.66006-3.0474-0.71436-4.2215-0.10809-0.48094 0.24835-1.0329 0.72785-1.2266 1.0656-0.94509 1.648-0.91933 0.35843-0.92296 46.212l-3e-3 42.92h8.2031z"/>
    <path transform="matrix(.26458 0 0 .26458 43.83 54.914)" d="m193.74 94.808v-91.406h27.899l0.10346 0.53711c0.0569 0.29541 2.5008 22.708 5.431 49.805s5.3741 49.268 5.4311 49.268c0.057 0 2.6345-22.17 5.7277-49.268 3.0933-27.097 5.6704-49.509 5.7269-49.805l0.1028-0.53711h27.313v182.81h-22.265l-0.0492-47.26-0.0492-47.26-10.773 59.071h-12.064l-9.9758-58.862-0.0492 47.155-0.0492 47.155h-22.46z"/>
    <path transform="matrix(.26458 0 0 .26458 43.83 54.914)" d="m338.95 187.37c-6.1106-0.47933-10.974-2.5812-15.109-6.5295-2.2112-2.1113-3.898-4.4158-5.2899-7.2266-1.6815-3.3957-2.4016-5.8389-3.1665-10.742-0.19101-1.2246-0.25701-18.64-0.30516-80.518l-0.06144-78.955h22.66l0.0505 80.127c0.0402 63.758 0.1007 80.271 0.29618 80.834 0.6555 1.8853 2.0292 2.9067 3.9091 2.9067 1.6758 0 2.6948-0.75447 3.412-2.5262l0.44002-1.087 0.05-80.127 0.05-80.127h22.459l-1.6e-4 77.49c-1.1e-4 50.864-0.0683 78.228-0.19834 79.639-0.57961 6.2835-2.4501 12.032-5.2799 16.225-0.57039 0.84527-1.7842 2.3118-2.6973 3.2591-4.3765 4.5399-9.319 6.8331-15.858 7.3574-1.434 0.11499-2.7875 0.19657-3.0077 0.18128-0.22023-0.0153-1.2793-0.0968-2.3535-0.18101z"/>
    <path transform="matrix(.26458 0 0 .26458 43.83 54.914)" d="m411.7 94.808v-91.406h47.656v18.945h-25v60.547h18.164v19.336h-18.164v65.039h25v18.945h-47.656z"/>
    <path transform="matrix(.26458 0 0 .26458 43.83 54.914)" d="m501.74 94.808v-91.406h22.461v163.87h25v18.945h-47.461z"/>
   </g>
  </g>
 </g>
</svg>
